# xmcd CD database file
#
# Track frame offsets:
#	150
#	16332
#	52075
#	86169
#	109272
#	139894
#	163202
#	190298
#	212240
#	246604
#	269938
#
# Disc length: 4067 seconds
#
# Revision: 0
# Processed by: cddbd v1.5.2PL0 Copyright (c) Steve Scherf et al.
# Submitted via: CDex 1.51
#
DISCID=b60fe10b
DTITLE=Robin Bank$ Live - After Dark
DYEAR=2002
DGENRE=Blues
TTITLE0=Rompin' After Dark
TTITLE1=My Daily Wish
TTITLE2=Rock this House
TTITLE3=I'm Walkin'
TTITLE4=Built For Comfort
TTITLE5=The Whiskey Song
TTITLE6=Ain't Nobody's Business
TTITLE7=Hey Little Girl (Boy)
TTITLE8=Blue Bird
TTITLE9=Work It Out
TTITLE10=Whole Lotta Love
EXTD=YEAR: 2002
EXTT0=
EXTT1=
EXTT2=
EXTT3=
EXTT4=
EXTT5=
EXTT6=
EXTT7=
EXTT8=
EXTT9=
EXTT10=
PLAYORDER=
